<?xml version="1.0" encoding="utf-8"?>
<!-- Generator: Adobe Illustrator 24.0.2, SVG Export Plug-In . SVG Version: 6.00 Build 0)  -->
<svg version="1.1" id="Calque_1" xmlns="http://www.w3.org/2000/svg" xmlns:xlink="http://www.w3.org/1999/xlink" x="0px" y="0px"
	 viewBox="0 0 937.9 958.5" style="enable-background:new 0 0 937.9 958.5;" xml:space="preserve">
<style type="text/css">
	.st0{fill:#010000;}
	.st1{fill:#00925C;}
	.st2{fill:#FFFFFF;}
</style>
<path class="st0" d="M730.8,868.1c-14.9,0-24.9,6.9-24.9,17.2c0,10.4,10.5,14.5,19.7,18.3c7.1,2.9,14.6,5.9,14.6,10.8
	c0,1.5-0.5,2.6-1.3,3.6c-1.7,2-5.2,3-10.7,2.7c-5.4-0.3-11.5-2.1-18.4-5.2l-2.8-1.3V927l1.8,0.5l1.1,0.3c3.4,0.8,10,2.3,16.6,2.3
	c17.3,0,27.6-6.8,27.6-18.3c0-10.6-10.6-14.9-20-18.6c-6.9-2.8-14-5.6-14-10.1c0-1.3-0.1-5.2,8.8-5.2c6.6,0,13.2,2.6,16.7,4.1
	l3.3,1.4v-12.9l-3.3-0.6C742.1,869.2,736.5,868.1,730.8,868.1L730.8,868.1z M148,870.2v0.6c0.5,6.2,0.8,21.7,0.8,27.4
	c0,5.2-0.1,22.6-0.9,30.1v0.6h27.3c13.4,0,27.6-4.2,27.6-16.1c0-7.5-5.3-13-15.4-16.1c7.4-2,12.5-7.1,12.5-13
	c0-9.7-11.2-13.4-21.7-13.7H148z M214.2,870.2v0.6c0.5,6.2,0.8,21.6,0.8,27.3c0,5.2-0.1,22.7-0.9,30.3v0.6h13.7v-0.5
	c-0.8-14.4-0.8-28.9-0.8-42.9c0.5,1.6,1.2,3.2,3.3,6.4c0.2,0.4,23.8,34.7,25,36.8v0.3h11.1l-0.1-0.6c-0.8-7.6-0.8-25.1-0.8-30.3
	c0-5.7,0.4-21.1,0.8-27.3v-0.6h-13.8l0.6,14.8c0.3,7.4,0.4,14.9,0.9,22.2c-0.9-2.2-1.6-3.5-5.6-9.3c-0.1-0.2-13.8-21.5-18.6-27.6
	l-0.1-0.1H214.2L214.2,870.2z M281.8,870.2l0.1,0.5c0.5,6.2,0.8,21.7,0.8,27.4c0,5.2-0.1,22.7-0.9,30.3l-0.1,0.6h16.5l-0.1-0.6
	c-0.6-5.4-0.7-15.6-0.8-23.6c0.7,0,2.9,0.1,2.9,0.1l2.3,0.1c21.6,0,32-5.8,32-17.7c0-13.6-14.6-16.8-26.9-17.1L281.8,870.2
	L281.8,870.2z M365.7,870.2v0.5c0.5,6.2,0.9,21.7,0.9,27.4c0,5.2-0.2,22.7-1,30.3v0.6h16.3v-0.6c-0.6-5.4-0.8-15.6-0.9-23.6
	c0.7,0,3.1,0.1,3.1,0.1l2.3,0.1c21.6,0,32-5.8,32-17.7c0-13.6-14.8-16.8-27.1-17.1L365.7,870.2L365.7,870.2z M440.1,870.2l-0.1,0.4
	c-3,8.4-22.6,51.1-25.7,57.7L414,929h14l0.1-0.3c1.2-4,2.7-8.6,4.6-13.5l11.6-0.3l9.6,0.1c0,0,1.6,0.1,2,0.1
	c2.6,6.3,4.4,11.2,5.2,13.5l0.1,0.3h16.2l-26.2-58.8H440.1L440.1,870.2z M484.1,870.2v0.6c0.5,6.2,0.8,21.6,0.8,27.3
	c0,5.2,0,22.7-0.9,30.3v0.6h16.3v-0.6c-0.8-7.6-0.9-25.1-0.9-30.3c0-4.1,0.2-13.3,0.5-20.5c1.3-0.2,3.1-0.2,4.3-0.3
	c7.7-0.1,13.1,1.4,15.7,4.6c1.2,1.4,1.8,3.3,1.8,5.4c0,6.8-6.5,10.2-12.4,10.5c-1.9,0.1-3.4-0.1-3.4-0.1l-1.1-0.3l0.8,1.1
	c5.7,8.5,14.4,23.2,18.1,30.2l0.1,0.3h17.5l-0.5-0.9c-0.6-0.9-12.1-17.8-17-25c0,0-0.2-0.2-0.3-0.4c8.9-2.7,13.3-7.7,13.3-15.4
	c0-13.6-14.8-16.8-27.1-17.1H484.1L484.1,870.2z M548.9,870.2v0.5c0.5,6.2,0.8,21.7,0.8,27.4c0,5.2-0.1,22.7-0.9,30.3v0.6h16.3
	l-0.1-0.6c-0.8-7.6-0.8-25.1-0.8-30.3c0-5.7,0.4-21.2,0.8-27.4v-0.5H548.9z M579.8,870.2v0.6c0.5,6.2,0.8,21.7,0.8,27.4
	c0,5.2,0.1,22.6-0.8,30.1l-0.1,0.6h27.4c13.3,0,27.6-4.2,27.6-16.1c0-7.5-5.4-13-15.6-16.1c7.5-2,12.5-7.1,12.5-13
	c0-9.7-11.2-13.4-21.7-13.7H579.8z M663.9,870.2l-0.1,0.3c-3.2,8.9-23.9,54.1-25.7,57.8l-0.4,0.8h14l0.1-0.4c1.2-4,2.7-8.6,4.6-13.5
	c0.5,0,11.6-0.1,11.6-0.1l9.6,0.1c0,0,1.6,0,2,0c2.6,6.3,4.4,11.1,5.2,13.5l0.1,0.4h16.2l-26.2-58.8L663.9,870.2L663.9,870.2z
	 M166.1,876.8c0.9-0.1,2.1,0,3.1,0c11.4,0,15.6,2.3,15.6,8.6c0,1.7-0.4,3.1-1.4,4.3c-2.2,2.6-6.6,4-12,3.7h-0.3l-3.2,8.3h3.2
	c6.3-0.2,11.7,1.8,14.6,5.2c1.3,1.6,1.9,3.4,1.9,5.4c0,6.5-5.7,9.8-17,9.8c-1.9,0-5,0-6.9-0.1c-0.4-8.6-0.4-20.3-0.4-23.7
	c0-4.1,0.1-13.2,0.4-21.1C164.3,877.1,165.2,876.9,166.1,876.8L166.1,876.8z M598,876.8c0.9-0.1,1.9,0,2.9,0
	c11.4,0,15.7,2.3,15.7,8.6c0,1.7-0.5,3.1-1.5,4.3c-2.2,2.6-6.6,4-12,3.7h-0.3l-3.2,8.3h3.3c6.3-0.2,11.6,1.8,14.4,5.2
	c1.3,1.6,2,3.4,2,5.4c0,6.5-5.7,9.8-17,9.8c-1.9,0-5,0-6.9-0.1c-0.4-8.6-0.5-20.3-0.5-23.7c0-4.1,0.2-13.3,0.5-21.1
	C596.2,877.1,597.1,876.9,598,876.8z M301.9,877.3c7.7-0.1,13,1.4,15.6,4.6c1.2,1.5,1.8,3.3,1.8,5.4c0,8.5-9.5,10.3-17.5,10.3
	l-3.3-0.1c0,0-0.8-0.2-1.3-0.3c-0.1-2,0-4.5,0-7.4c0-3.8,0-8,0.1-12.1C298.3,877.5,300.1,877.4,301.9,877.3z M385.8,877.3
	c7.7-0.1,13.1,1.4,15.7,4.6c1.2,1.5,1.8,3.3,1.8,5.4c0,8.5-9.5,10.3-17.5,10.3l-3.3-0.1c0,0-0.8-0.2-1.3-0.3c-0.1-2-0.1-4.5-0.1-7.4
	c0-3.8,0.1-8,0.3-12.1C382.3,877.5,384,877.4,385.8,877.3L385.8,877.3z M444.4,887.5c1.3,2.8,4.7,10.6,8.6,19.9c-0.6,0-1.3,0-1.3,0
	l-7.3,0.1c0,0-7.4-0.1-8.6-0.1C438.9,900,441.8,893.3,444.4,887.5z M668.1,887.5c1.3,2.8,4.7,10.6,8.6,19.9c-0.6,0-1.3,0-1.3,0
	l-7.3,0.1c0,0-7.4-0.1-8.6-0.1C662.6,900,665.5,893.3,668.1,887.5z"/>
<path class="st1" d="M138.4,796.2h619.9V176.3H138.4V796.2z"/>
<path class="st2" d="M490.3,245c16.9,7,85.1,44.3,93.6,55.9c-36.2,4.8-105.1,25.3-140,43.6c40-8.8,95.7-13.4,134.1-15.5
	c-14.9,22-23.1,33.3-47.3,59.5c41.5-24.9,53-26.6,91.4-49.1c14.4,21.4,18.1,70.8,18.6,110c12.5-24.9,27.7-118.5,21.4-135.5
	c23.1-15.1,23.1-21.1,29.1-31.4c-23.3,2.1-36.4,2.5-49.1,6.4C610.1,269.4,544.1,249.1,490.3,245L490.3,245z M399.4,363.6
	c-10.4,1.5-39.6,14.7-59.1,30c0,0-12.9-1.6-34.6-0.9c-21.6,0.9-50,6.4-60.9,10.9c21.1,1,49.8,6.3,60.9,17.3c0,0-32.2,29-63.6,92.3
	c0,0,57.8-53.9,82.7-67.3c0,0,12.7,43.8,21.8,65.5c0,0,8.1-50.5,21.4-79.6c0,0,3.7-2.3,22.3-4.1c18.4-1.6,44.3-2.8,94.1,5.9
	c0,0-45.7-29-102.3-36.8C384.3,389,392.3,372.4,399.4,363.6L399.4,363.6z M236.6,535.4c-3.6,31.1-4.8,53.8-0.5,78.6
	c-14.2,3.9-24.3,7.1-35.9,12.3c16.4,10.1,29.8,18,48.2,26.4c9.6,20.9,19.5,34.9,35.9,50.9c-3.8-13.7-4.6-24.7-3.2-39.1
	c20.5,6,37.6,9.3,60.9,10c-22.2-8.2-38-17.8-55.5-34.1c5.3-14.3,11.3-25.7,20.9-40c-17.8,2.6-30.9,4.7-46.4,7.7
	C248.6,586.1,243,564.8,236.6,535.4z M508.5,632.3c-15.6,11-29.3,19.6-47.3,28.2c-0.9-8.4-1.5-15.5-1.8-25
	c-10.2,13.5-18.7,23.9-30,36.4c-19.1,5.2-34.2,7.2-52.7,7.3c11.3,5.9,22.7,9.4,34.5,11.8c-11.8,10.8-22.2,18.6-33.6,25.9
	c19.5-4.6,44.7-13,63.6-24.1c9.8,0.3,19.6-0.1,26.4-1.4c-1.6-5.9-2.9-10.2-4.5-17.7C481,659.7,493.7,647.3,508.5,632.3L508.5,632.3z
	"/>
</svg>
