<?xml version="1.0" encoding="utf-8"?>
<!-- Generator: Adobe Illustrator 24.0.2, SVG Export Plug-In . SVG Version: 6.00 Build 0)  -->
<svg version="1.1"
	 id="Layer_1" xmlns:cc="http://creativecommons.org/ns#" xmlns:dc="http://purl.org/dc/elements/1.1/" xmlns:inkscape="http://www.inkscape.org/namespaces/inkscape" xmlns:rdf="http://www.w3.org/1999/02/22-rdf-syntax-ns#" xmlns:sodipodi="http://sodipodi.sourceforge.net/DTD/sodipodi-0.dtd" xmlns:svg="http://www.w3.org/2000/svg"
	 xmlns="http://www.w3.org/2000/svg" xmlns:xlink="http://www.w3.org/1999/xlink" x="0px" y="0px" viewBox="0 0 7500.2 5655.7"
	 style="enable-background:new 0 0 7500.2 5655.7;" xml:space="preserve">
<sodipodi:namedview  bordercolor="#666666" borderopacity="1" gridtolerance="10" guidetolerance="10" id="namedview11" inkscape:current-layer="Layer_1" inkscape:cx="1112.9177" inkscape:cy="901.65333" inkscape:pageopacity="0" inkscape:pageshadow="2" inkscape:window-height="1017" inkscape:window-maximized="1" inkscape:window-width="1920" inkscape:window-x="-8" inkscape:window-y="-8" inkscape:zoom="0.10853569" objecttolerance="10" pagecolor="#ffffff" showgrid="false">
	</sodipodi:namedview>
<path id="path2" inkscape:connector-curvature="0" inkscape:export-filename="G:\Users\suitedoalex\sites\lvmh-logo-4.png" inkscape:export-xdpi="11.750617" inkscape:export-ydpi="11.750617" d="
	M1596.1,3219.6l43.5,10.9l-152.2,462.3H143.9v-49h65.3c76.1,0,114.2-21.8,146.9-70.7c16.3-27.2,27.2-92.5,27.2-190.4V2224.3
	c0-108.8-10.9-179.5-38.1-206.7c-32.6-38.1-81.6-59.8-152.3-59.8h-59.8v-43.5h777.8v43.5c-92.5,0-152.3,5.4-190.4,27.2
	c-38.1,16.3-59.8,43.5-76.1,70.7c-16.3,27.2-21.8,92.5-21.8,195.8v1142.2c0,70.7,5.4,125.1,21.8,152.3c10.9,16.3,27.2,32.6,49,43.5
	c21.8,10.9,108.8,10.9,223,10.9h108.8c136,0,228.4-10.9,282.8-32.6c54.4-21.8,103.3-54.4,152.3-108.8
	C1509.1,3404.5,1552.6,3333.8,1596.1,3219.6"/>
<path id="path4" inkscape:connector-curvature="0" inkscape:export-filename="G:\Users\suitedoalex\sites\lvmh-logo-4.png" inkscape:export-xdpi="11.750617" inkscape:export-ydpi="11.750617" d="
	M3168.1,1914.2v49c-59.8,10.9-87,32.6-119.7,59.8c-43.5,43.5-87,108.8-119.7,195.8l-614.6,1522.9h-54.4L1607,2202.4
	c-32.6-81.6-59.8-125.1-70.7-146.9c-21.8-27.2-49-49-81.6-65.3s-54.4-27.2-108.8-27.2v-49h674.5v49c-81.6,5.4-108.8,21.8-130.5,43.5
	c-21.8,21.8-38.1,43.5-38.1,76.1c0,43.5,21.8,114.2,59.8,206.7l446,1038.9l418.8-1028c38.1-103.3,59.8-174.1,59.8-212.1
	c0-27.2-10.9-49-38.1-70.7c-27.2-21.8-76.1-38.1-136-49c-5.4,0-10.9,0-21.8-5.4v-49L3168.1,1914.2z"/>
<path id="path6" inkscape:connector-curvature="0" inkscape:export-filename="G:\Users\suitedoalex\sites\lvmh-logo-4.png" inkscape:export-xdpi="11.750617" inkscape:export-ydpi="11.750617" d="
	M4272.2,3692.8l-669-1479.4v1174.8c0,108.8,10.9,174.1,38.1,201.2c32.6,38.1,70.7,54.4,141.4,54.4h65.3v49h-625.6v-49h103.3
	c76.1,0,130.5-21.8,157.7-65.3c21.8-27.2,27.2-92.5,27.2-190.4V2218.8c0-76.1-10.9-136-27.2-168.6c-10.9-27.2-32.6-43.5-65.3-65.3
	c-32.6-16.3-76.1-27.2-146.9-27.2v-43.5h462.3l636.6,1392.4L5001,1914.2h478.6v49h-59.8c-76.1,0-119.7,21.8-146.9,65.3
	c-21.8,27.2-32.6,92.5-32.6,190.4v1169.4c0,108.8,10.9,174.1,38.1,201.2c32.6,38.1,76.1,54.4,146.9,54.4h49v49h-718v-49h54.4
	c76.1,0,130.5-21.8,157.7-65.3c21.8-27.2,27.2-92.5,27.2-190.4V2197.1l-679.9,1495.8h-43.5V3692.8z"/>
<path id="path8" inkscape:connector-curvature="0" inkscape:export-filename="G:\Users\suitedoalex\sites\lvmh-logo-4.png" inkscape:export-xdpi="11.750617" inkscape:export-ydpi="11.750617" d="
	M6056.2,2730.1h821.3v-505.8c0-92.5-5.4-152.3-16.3-179.5c-10.9-21.8-27.2-38.1-54.4-54.4c-38.1-21.8-65.3-32.6-108.8-32.6h-59.8
	v-43.5h723.4v49h-59.8c-43.5,0-70.7,10.9-103.3,32.6c-27.2,16.3-49,32.6-54.4,65.3c-10.9,27.2-16.3,87-16.3,174.1v1153.1
	c0,92.5,5.4,146.9,16.3,179.5c10.9,21.8,27.2,38.1,54.4,54.4c38.1,21.8,70.7,32.6,108.8,32.6h59.8v49h-723.4v-49h59.8
	c70.7,0,114.2-21.8,146.9-65.3c21.8-27.2,32.6-92.5,32.6-201.2v-560.2h-826.7V3383c0,92.5,5.4,146.9,16.3,179.5
	c10.9,21.8,27.2,38.1,54.4,54.4c38.1,21.8,65.3,32.6,108.8,32.6h65.3v49h-712.5v-49h59.8c70.7,0,103.3-21.8,141.4-65.3
	c21.8-27.2,32.6-92.5,32.6-201.2V2224.3c0-92.5-5.4-152.3-16.3-179.5c-10.9-21.8-27.2-38.1-54.4-54.4
	c-38.1-21.8-65.3-32.6-108.8-32.6h-59.8v-43.5h718v49h-65.3c-43.5,0-70.7,10.9-103.3,32.6c-27.2,16.3-43.5,32.6-54.4,65.3
	c-10.9,27.2-16.3,87-16.3,174.1L6056.2,2730.1z"/>
</svg>
