<?xml version="1.0" encoding="utf-8"?>
<!-- Generator: Adobe Illustrator 24.0.2, SVG Export Plug-In . SVG Version: 6.00 Build 0)  -->
<svg version="1.1" id="Calque_1" xmlns="http://www.w3.org/2000/svg" xmlns:xlink="http://www.w3.org/1999/xlink" x="0px" y="0px"
	 viewBox="0 0 2500 2500" style="enable-background:new 0 0 2500 2500;" xml:space="preserve">
<style type="text/css">
	.st0{fill:#FF6600;}
	.st1{fill:#FFFFFF;}
</style>
<path class="st0" d="M2175.9,2175.9H324.1V324.1h1851.8V2175.9z"/>
<path class="st1" d="M552,2026.6c-67.1,0-127.6-42.7-127.6-135.9c0-93.3,60.5-135.9,127.6-135.9c67.1,0,127.4,42.7,127.4,135.9
	C679.5,1983.9,619.1,2026.6,552,2026.6 M552,1812c-50.7,0-60,45.6-60,78.6c0,33,9.2,78.7,60,78.7s60-45.7,60-78.7
	C612,1857.6,602.7,1812,552,1812 M726,1761.4h64.6v30.2c12.4-16.4,42.6-35.6,71-35.6c2.7,0,6,0,8.9,0.4v63.7h-3.4
	c-29.5,0-61.7,4.6-72.2,27.5V2019H726V1761.4L726,1761.4z M1050.6,1996.6c-26.2,17.2-54.6,25.6-85.2,25.6c-48.1,0-76.6-32-76.6-75
	c0-57.7,53-88.2,162.3-100.4v-14.4c0-18.7-14.2-29.6-40.5-29.6c-26.2,0-47.6,10.4-63,29.6l-45.7-26.1c24-33.6,60.6-50.5,109.7-50.5
	c67.2,0,104.9,29.1,104.9,76.5c0,0-0.1,186.3,0,186.8h-60.1L1050.6,1996.6L1050.6,1996.6z M955.5,1942.3c0,17.4,10.9,33.5,30.6,33.5
	c21.2,0,42.1-8.7,62.8-27.1v-61.1C985.6,1895.5,955.5,1911.9,955.5,1942.3 M1170.3,1768.2l56.2-7.7l6.2,30.6
	c31.6-23.2,56.8-35.5,88.5-35.5c53,0,80.5,28.1,80.5,83.8v179.4h-68v-167.7c0-31.6-8.1-45.7-32.7-45.7c-20.2,0-40.5,9.1-63.6,28.6
	v184.8h-67.1L1170.3,1768.2L1170.3,1768.2z M1567.6,1963.6c51.5-0.4,55.8-52.7,55.8-86.8c0-40.5-19.7-73.1-56.2-73.1
	c-24.4,0-51.6,17.7-51.6,75.8C1515.5,1911.4,1517.7,1964.1,1567.6,1963.6 M1688.5,1760.5v244c0,43-3.4,114.1-126.1,114.7
	c-50.7,0.4-97.7-20-107.1-64.2l66.8-10.7c2.7,12.6,10.6,25.2,48.5,25.2c35.1,0,52.1-16.9,52.1-57.1v-30l-0.9-0.9
	c-10.7,19.4-27.1,37.6-66.5,37.6c-60.1,0-107.4-41.7-107.4-128.8c0-86.2,48.8-134.4,103.6-134.6c51.5-0.1,70.5,23.4,75,35.7
	l-0.9-0.1l5.6-30.9L1688.5,1760.5L1688.5,1760.5L1688.5,1760.5z M1850.7,2023.7c-76,0-121.2-48.8-121.2-133.7
	c0-85.7,45.9-134.6,120.2-134.6c74.3,0,118.6,47.4,118.6,131.2c0,4.5-0.5,8.9-0.5,13.4h-171.5c0.5,48.8,20.7,73.5,60.7,73.5
	c25.6,0,42.6-10.4,58.5-33l49.6,27.5C1943,2004.6,1903.7,2023.7,1850.7,2023.7 M1901.5,1856.1c0-34.5-19.7-54.7-52-54.7
	c-30.6,0-49.8,19.9-52.5,54.7H1901.5z M2084.3,1663.5l-25,64.6l-25.5-64.6h-21.7v85.2h14.1v-71.1h0.4l28,71.1h9l27.7-71.1h0.5v71.1
	h14v-85.2H2084.3z M1927.4,1663.5v11.4h26.6v73.8h14.1v-73.8h26.7v-11.4H1927.4L1927.4,1663.5z"/>
</svg>
