<svg xmlns="http://www.w3.org/2000/svg" viewBox="0 0 150 150"><defs><style>.cls-1{fill:#fff;}.cls-2{fill:#001756;}</style></defs><title>loop_syn4</title><g id="Calque_2" data-name="Calque 2"><g id="Calque_2-2" data-name="Calque 2"><rect class="cls-1" width="150" height="150"/></g><g id="Calque_1-2" data-name="Calque 1"><path class="cls-2" d="M133.11,68A27.73,27.73,0,0,0,88,54c-3.62,3.18-6.88,6.75-10.31,10.14l-2.84,2.8c-4-3.95-7.73-7.85-11.65-11.61-7.83-7.5-17.1-10-27.52-7a27.81,27.81,0,0,0,12.71,54.07,26.78,26.78,0,0,0,14.85-7.79C67.09,90.7,71,86.82,74.85,82.91c3.91,3.92,7.75,7.8,11.64,11.64a27,27,0,0,0,24.3,7.81A27.73,27.73,0,0,0,133.11,68ZM56.56,85.27a20.53,20.53,0,0,1-6.46,4.85,16.55,16.55,0,1,1-9.52-31.48,15.87,15.87,0,0,1,14.17,4.21c4,3.77,7.81,7.77,11.71,11.67.1.1.19.23.39.48C63.38,78.46,60,81.84,56.56,85.27Zm49.87,6.17a16.43,16.43,0,0,1-12.13-5L83,75.17c4.28-4.38,8.4-8.81,12.79-13a14.75,14.75,0,0,1,5.57-3,16.49,16.49,0,1,1,5.09,32.22Z"/></g></g></svg>