<svg xmlns="http://www.w3.org/2000/svg" xmlns:xlink="http://www.w3.org/1999/xlink" viewBox="0 0 150 150"><defs><style>.cls-1{fill:#ff0065;}.cls-2{fill:#b0044b;}.cls-3{fill:#ff5ba0;}.cls-4{fill:#fff;}</style><symbol id="A" data-name="A" viewBox="0 0 64.01 64.01"><path class="cls-1" d="M64,62.09A1.94,1.94,0,0,1,62.09,64H1.92A1.93,1.93,0,0,1,0,62.09V1.92A1.93,1.93,0,0,1,1.92,0H46.76L64,17.24Z"/><path class="cls-2" d="M47.24,16.67H63.43L46.76,0H30.66Z"/><path class="cls-3" d="M64,17.25H48.68a1.93,1.93,0,0,1-1.92-1.92V0Z"/><path class="cls-4" d="M44.56,41.49V22.23a.67.67,0,0,0-.2-.48.64.64,0,0,0-.47-.19h-5a.65.65,0,0,0-.67.67V31.8L32.1,23.28l-6.32,8.9V22.12a.67.67,0,0,0-.2-.48.68.68,0,0,0-.47-.19h-5a.68.68,0,0,0-.47.19.63.63,0,0,0-.19.48V41.49a.59.59,0,0,0,.19.47.67.67,0,0,0,.47.2h4.41a.85.85,0,0,0,.58-.29l6.8-9.4,6.9,9.4a.68.68,0,0,0,.57.29h4.51a.73.73,0,0,0,.67-.67"/></symbol></defs><title>Mur_syn4</title><g id="Calque_2" data-name="Calque 2"><g id="Calque_2-2" data-name="Calque 2"><rect class="cls-4" width="150" height="150"/></g><g id="Calque_1-2" data-name="Calque 1"><use width="64.01" height="64.01" transform="matrix(1.19, 0, 0, -1.19, 38, 110)" xlink:href="#A"/></g></g></svg>