<svg xmlns="http://www.w3.org/2000/svg" viewBox="0 0 150 150"><defs><style>.cls-1{fill:#fff;}.cls-2{fill:#015173;}.cls-3{fill:#02bbea;}.cls-4{fill:#6cbc4a;}</style></defs><title>web_syn4</title><g id="Calque_2" data-name="Calque 2"><g id="Calque_2-2" data-name="Calque 2"><rect class="cls-1" width="150" height="150"/></g><g id="Calque_1-2" data-name="Calque 1"><path class="cls-2" d="M100,43c8.76,7.84,13.2,17.73,12.87,29.39-.48,16.79-8.58,29.06-24.07,35.46s-29.75,3.22-42.18-8A22.25,22.25,0,0,1,45,98c0-.25-.1-.44-.38-.48l0,0c-.06-.47-.08-1-.18-1.42a7,7,0,0,1,4.86-8.33,11.33,11.33,0,0,1,5.27.21h-.06a.58.58,0,0,0,.59.44l.69.42c6.72,7.23,15,9.49,24.41,7.12,12.36-3.14,19.92-14.43,18.44-27.15a22.65,22.65,0,0,0-7.8-15l-.42-.7a.6.6,0,0,0-.44-.59v.06c-.09-.46-.18-.92-.28-1.38a7.25,7.25,0,0,1,5.77-8.93c1.41-.27,2.69.38,4.06.37l0,0C99.56,42.92,99.75,43,100,43Z"/><path class="cls-3" d="M99.55,42.66c-1.37,0-2.65-.64-4.06-.37a7.25,7.25,0,0,0-5.77,8.93c.1.46.19.92.28,1.38A6.69,6.69,0,0,1,88.94,52,25,25,0,0,0,72.3,47.1c-14.42.66-25.59,14.79-23,29A32.57,32.57,0,0,0,54.59,88a11.33,11.33,0,0,0-5.27-.21,7,7,0,0,0-4.86,8.33c.1.47.12.95.18,1.42A35.91,35.91,0,0,1,35,72.61C35,56.32,42.33,44.05,56.91,37s28.69-5.14,41.63,4.7A10.57,10.57,0,0,1,99.55,42.66Z"/><path class="cls-3" d="M100,43c-.25,0-.44-.1-.48-.38Z"/><path class="cls-3" d="M44.62,97.52c.28,0,.37.23.38.48Z"/><path class="cls-4" d="M55.81,88.86a35.55,35.55,0,0,0,15.53-2.57A32.09,32.09,0,0,0,90.85,56.51c0-.9,0-1.79,0-2.68a22.65,22.65,0,0,1,7.8,15c1.48,12.72-6.08,24-18.44,27.15C70.86,98.35,62.53,96.09,55.81,88.86Z"/><path class="cls-3" d="M90.44,53.13c-.26-.11-.5-.24-.44-.59A.6.6,0,0,1,90.44,53.13Z"/><path class="cls-3" d="M54.53,88c.35-.06.47.18.59.44A.58.58,0,0,1,54.53,88Z"/></g></g></svg>